<svg xmlns="http://www.w3.org/2000/svg" xmlns:xlink="http://www.w3.org/1999/xlink" width="32" height="32">
  <defs>
    <linearGradient id="d">
      <stop offset="0" style="stop-color:#fff;stop-opacity:1"/>
      <stop offset="0" style="stop-color:#fff;stop-opacity:.23529412"/>
      <stop offset="1" style="stop-color:#fff;stop-opacity:.15686275"/>
      <stop offset="1" style="stop-color:#fff;stop-opacity:.39215687"/>
    </linearGradient>
    <linearGradient id="e">
      <stop offset="0" style="stop-color:#fff;stop-opacity:1"/>
      <stop offset="0" style="stop-color:#fff;stop-opacity:.23529412"/>
      <stop offset="1" style="stop-color:#fff;stop-opacity:.15686275"/>
      <stop offset="1" style="stop-color:#fff;stop-opacity:.39215687"/>
    </linearGradient>
    <linearGradient id="b">
      <stop offset="0" style="stop-color:#737373;stop-opacity:1"/>
      <stop offset="1" style="stop-color:#4b4b4b;stop-opacity:1"/>
    </linearGradient>
    <linearGradient id="a">
      <stop offset="0" style="stop-color:#000;stop-opacity:1"/>
      <stop offset="1" style="stop-color:#000;stop-opacity:0"/>
    </linearGradient>
    <linearGradient xlink:href="#b" id="g" x1="3" x2="21.069" y1="9.5" y2="9.5" gradientTransform="matrix(0 1.33333 -1.33333 0 30.667 0)" gradientUnits="userSpaceOnUse"/>
    <linearGradient xlink:href="#d" id="h" x1="26.915" x2="16.962" y1="57.037" y2="57.037" gradientTransform="matrix(0 -1.00464 1 0 -37.965 44.04)" gradientUnits="userSpaceOnUse"/>
    <linearGradient xlink:href="#e" id="i" x1="39.855" x2="18.601" y1="75.965" y2="75.965" gradientTransform="matrix(0 -1.00464 1 0 -59.965 45.04)" gradientUnits="userSpaceOnUse"/>
    <radialGradient xlink:href="#a" id="f" cx="24.837" cy="36.421" r="15.645" fx="24.837" fy="36.421" gradientTransform="matrix(-.52995 0 0 -.35308 22.513 21.836)" gradientUnits="userSpaceOnUse"/>
  </defs>
  <g style="stroke-width:.744169">
    <path d="M1.059 8.976a8.291 5.524 0 1 1 16.582 0 8.291 5.524 0 0 1-16.582 0" style="display:inline;overflow:visible;visibility:visible;opacity:.141176;fill:url(#f);fill-opacity:1;fill-rule:evenodd;stroke:none;stroke-width:.744169;marker:none" transform="matrix(-1.34495 0 0 1.34261 28.575 11.642)"/>
  </g>
  <path d="M25.982 16.207h-.005a.7.7 0 0 1-.224.526l-.029.028-9.266 10.54a.655.655 0 0 1-.93 0l-9.265-10.54q-.014-.016-.029-.028a.7.7 0 0 1-.224-.526c0-.403.288-.707.675-.707h5.133a.7.7 0 0 0 .682-.702V4.163c0-.381.267-.663.649-.663h5.683c.381 0 .668.282.668.663v10.7c.033.357.32.637.66.637h5.155c.387 0 .667.304.667.707" style="font-variation-settings:normal;vector-effect:none;fill:url(#g);fill-opacity:1;stroke:#3f3f3f;stroke-width:1;stroke-linecap:round;stroke-linejoin:round;stroke-miterlimit:4;stroke-dasharray:none;stroke-dashoffset:0;stroke-opacity:.5;stop-color:#000"/>
  <path d="M12 16.5H7.36L16 26.354l8.588-9.854H20" style="font-variation-settings:normal;opacity:.6;vector-effect:none;fill:none;fill-opacity:1;stroke:url(#h);stroke-width:1;stroke-linecap:butt;stroke-linejoin:miter;stroke-miterlimit:4;stroke-dasharray:none;stroke-dashoffset:0;stroke-opacity:1;marker:none;marker-start:none;marker-mid:none;marker-end:none;stop-color:#000;stop-opacity:1"/>
  <path d="M20 16.475c-.876 0-1.5-.884-1.5-1.537V4.5h-5v10.231c0 1.149-.87 1.755-1.5 1.755" style="font-variation-settings:normal;opacity:.6;vector-effect:none;fill:none;fill-opacity:1;stroke:url(#i);stroke-width:1;stroke-linecap:butt;stroke-linejoin:miter;stroke-miterlimit:4;stroke-dasharray:none;stroke-dashoffset:0;stroke-opacity:1;marker:none;marker-start:none;marker-mid:none;marker-end:none;stop-color:#000;stop-opacity:1"/>
</svg>
